<svg width="5329" height="1498" viewBox="0 0 5329 1498" fill="none" xmlns="http://www.w3.org/2000/svg">
<path d="M931.311 386.011C931.311 449.53 884.432 513.671 816.313 501.022C748.195 488.373 709.004 456.092 701.316 386.011C693.628 315.93 752.802 271 816.313 271C900.303 275.884 931.311 322.492 931.311 386.011Z" fill="url(#paint0_linear_172_28)"/>
<path d="M613.783 1084.88C692.597 1002.22 782.36 970.742 797.6 1065.17C806.042 1117.49 792.592 1180.19 782.361 1208.38C772.131 1236.57 752.187 1268.29 713.021 1311.54C673.855 1354.79 567.775 1425.59 518.393 1436.01C469.01 1446.43 393.639 1456 317.314 1424.67C229.259 1388.53 216.84 1289.44 317.314 1256.88C352.599 1245.44 433.13 1210.52 466.391 1192.24C499.651 1173.97 583.029 1117.13 613.783 1084.88ZM386.134 310.885C470.421 310.885 517.489 328.9 618.888 406.997C714.039 480.283 786.847 561.078 792.69 669.625C798.534 778.172 762.043 825.398 688.329 936.337C614.615 1047.28 550.779 1104.92 446.445 1100.21C342.111 1095.5 177.983 1040.38 134.188 986.867C51.3436 885.638 24.4319 843.348 1.55273 715.589C-6.73197 624.04 17.9186 545.439 80.8457 465.457C157.788 380.087 301.847 310.885 386.134 310.885ZM392.381 548.043C356.978 548.043 297.426 574.335 265.107 610.959C238.676 645.271 228.322 678.991 231.802 718.266C241.412 773.074 252.715 791.217 287.513 834.644C314.587 860.755 374.507 876.648 418.331 878.67C462.155 880.691 489.307 860.559 520.27 812.966C551.232 765.373 561.11 745.506 558.655 698.939C556.201 652.373 531.068 617.319 491.102 585.88C448.511 552.376 427.784 548.043 392.381 548.043Z" fill="url(#paint1_linear_172_28)"/>
<path d="M1578 1010C1529.33 1010 1483.67 1001 1441 983C1399 964.333 1362 938.667 1330 906C1298.67 873.333 1274 835.333 1256 792C1238 748.667 1229 702 1229 652C1229 602 1238 555.667 1256 513C1274 469.667 1299 431.667 1331 399C1363 366.333 1400.33 341 1443 323C1486.33 305 1533.33 296 1584 296C1639.33 296 1690.33 306.667 1737 328C1783.67 349.333 1822.67 380 1854 420L1789 485C1767 453 1738 428.667 1702 412C1666 394.667 1626.67 386 1584 386C1533.33 386 1488.33 397.333 1449 420C1410.33 442.667 1380 474 1358 514C1336.67 554 1326 600 1326 652C1326 704.667 1337 751 1359 791C1381 831 1410.67 862.333 1448 885C1485.33 907.667 1528 919 1576 919C1624.67 919 1666.67 909.667 1702 891C1738 872.333 1765.67 845 1785 809C1804.33 772.333 1814 727.667 1814 675L1871 716H1571V630H1911V644C1911 724.667 1896.67 792.333 1868 847C1840 901 1800.67 941.667 1750 969C1700 996.333 1642.67 1010 1578 1010ZM2238.44 1010C2191.77 1010 2149.77 999 2112.44 977C2075.1 955 2045.44 925.333 2023.44 888C2001.44 850 1990.44 807.667 1990.44 761C1990.44 715 2001.44 673.667 2023.44 637C2045.44 599.667 2075.1 570 2112.44 548C2149.77 526 2191.77 515 2238.44 515C2284.44 515 2326.1 526 2363.44 548C2401.44 569.333 2431.44 598.667 2453.44 636C2475.44 673.333 2486.44 715 2486.44 761C2486.44 807.667 2475.44 850 2453.44 888C2431.44 925.333 2401.44 955 2363.44 977C2326.1 999 2284.44 1010 2238.44 1010ZM2238.44 923C2268.44 923 2295.1 916 2318.44 902C2341.77 888 2360.1 869 2373.44 845C2386.77 820.333 2393.44 792.333 2393.44 761C2393.44 730.333 2386.44 703 2372.44 679C2359.1 655 2340.77 636.333 2317.44 623C2294.77 609 2268.44 602 2238.44 602C2208.44 602 2181.77 609 2158.44 623C2135.1 636.333 2116.77 655 2103.44 679C2090.1 703 2083.44 730.333 2083.44 761C2083.44 792.333 2090.1 820.333 2103.44 845C2116.77 869 2135.1 888 2158.44 902C2181.77 916 2208.44 923 2238.44 923ZM2837.84 1010C2801.84 1010 2769.18 1002.67 2739.84 988C2711.18 972.667 2688.18 951.667 2670.84 925C2653.51 898.333 2643.84 868 2641.84 834V691C2643.84 656.333 2653.51 626 2670.84 600C2688.84 573.333 2712.18 552.667 2740.84 538C2770.18 522.667 2802.51 515 2837.84 515C2881.18 515 2920.18 526 2954.84 548C2990.18 570 3017.84 599.667 3037.84 637C3057.84 674.333 3067.84 716.333 3067.84 763C3067.84 809.667 3057.84 851.667 3037.84 889C3017.84 926.333 2990.18 956 2954.84 978C2920.18 999.333 2881.18 1010 2837.84 1010ZM2587.84 1000V286H2677.84V641L2660.84 756L2677.84 872V1000H2587.84ZM2822.84 925C2852.84 925 2879.18 918 2901.84 904C2924.51 890 2942.51 871 2955.84 847C2969.18 822.333 2975.84 794 2975.84 762C2975.84 730.667 2969.18 702.667 2955.84 678C2942.51 653.333 2924.51 634.333 2901.84 621C2879.18 607 2853.18 600 2823.84 600C2793.84 600 2767.51 607 2744.84 621C2722.18 634.333 2704.51 653.333 2691.84 678C2679.18 702.667 2672.84 731 2672.84 763C2672.84 794.333 2678.84 822.333 2690.84 847C2703.51 871 2721.18 890 2743.84 904C2767.18 918 2793.51 925 2822.84 925ZM3170.88 1000V525H3260.88V1000H3170.88ZM3215.88 430C3199.21 430 3185.54 424.667 3174.88 414C3164.21 402.667 3158.88 388.667 3158.88 372C3158.88 356 3164.21 342.667 3174.88 332C3185.54 320.667 3199.21 315 3215.88 315C3232.54 315 3246.21 320.667 3256.88 332C3267.54 342.667 3272.88 356 3272.88 372C3272.88 388.667 3267.54 402.667 3256.88 414C3246.21 424.667 3232.54 430 3215.88 430Z" fill="#3F3C4B"/>
<path d="M3593.51 1000V326H3687.51V1000H3593.51ZM3357.51 392V306H3922.51V392H3357.51ZM4089.65 1010C4046.32 1010 4006.98 999.333 3971.65 978C3936.32 956 3908.32 926.333 3887.65 889C3867.65 851.667 3857.65 809.667 3857.65 763C3857.65 716.333 3867.65 674.333 3887.65 637C3908.32 599.667 3935.98 570 3970.65 548C4005.98 526 4045.65 515 4089.65 515C4125.65 515 4157.65 522.667 4185.65 538C4214.32 552.667 4237.32 573.333 4254.65 600C4271.98 626 4281.65 656.333 4283.65 691V834C4281.65 868 4271.98 898.333 4254.65 925C4237.98 951.667 4215.32 972.667 4186.65 988C4158.65 1002.67 4126.32 1010 4089.65 1010ZM4104.65 925C4149.32 925 4185.32 910 4212.65 880C4239.98 849.333 4253.65 810.333 4253.65 763C4253.65 730.333 4247.32 702 4234.65 678C4222.65 653.333 4205.32 634.333 4182.65 621C4159.98 607 4133.65 600 4103.65 600C4073.65 600 4046.98 607 4023.65 621C4000.98 635 3982.98 654.333 3969.65 679C3956.98 703 3950.65 730.667 3950.65 762C3950.65 794 3956.98 822.333 3969.65 847C3982.98 871 4001.32 890 4024.65 904C4047.98 918 4074.65 925 4104.65 925ZM4247.65 1000V872L4264.65 756L4247.65 641V525H4338.65V1000H4247.65ZM4620.68 1010C4594.01 1010 4568.68 1006.67 4544.68 1000C4521.35 992.667 4499.68 982.667 4479.68 970C4459.68 956.667 4442.35 941 4427.68 923L4485.68 865C4503.01 886.333 4523.01 902.333 4545.68 913C4568.35 923 4593.68 928 4621.68 928C4649.68 928 4671.35 923.333 4686.68 914C4702.01 904 4709.68 890.333 4709.68 873C4709.68 855.667 4703.35 842.333 4690.68 833C4678.68 823 4663.01 815 4643.68 809C4624.35 802.333 4603.68 796 4581.68 790C4560.35 783.333 4540.01 775 4520.68 765C4501.35 755 4485.35 741.333 4472.68 724C4460.68 706.667 4454.68 683.667 4454.68 655C4454.68 626.333 4461.68 601.667 4475.68 581C4489.68 559.667 4509.01 543.333 4533.68 532C4559.01 520.667 4589.35 515 4624.68 515C4662.01 515 4695.01 521.667 4723.68 535C4753.01 547.667 4777.01 567 4795.68 593L4737.68 651C4724.35 633.667 4707.68 620.333 4687.68 611C4668.35 601.667 4646.35 597 4621.68 597C4595.68 597 4575.68 601.667 4561.68 611C4548.35 619.667 4541.68 632 4541.68 648C4541.68 664 4547.68 676.333 4559.68 685C4571.68 693.667 4587.35 701 4606.68 707C4626.68 713 4647.35 719.333 4668.68 726C4690.01 732 4710.35 740.333 4729.68 751C4749.01 761.667 4764.68 776 4776.68 794C4789.35 812 4795.68 835.667 4795.68 865C4795.68 909.667 4779.68 945 4747.68 971C4716.35 997 4674.01 1010 4620.68 1010ZM5200.44 1000L4978.44 757L5198.44 525H5307.44L5062.44 781L5066.44 729L5316.44 1000H5200.44ZM4896.44 1000V286H4986.44V1000H4896.44Z" fill="url(#paint2_linear_172_28)"/>
<path d="M1291.1 1423C1283.1 1423 1275.5 1422 1268.3 1420C1261.3 1417.8 1254.8 1414.8 1248.8 1411C1242.8 1407 1237.6 1402.3 1233.2 1396.9L1250.6 1379.5C1255.8 1385.9 1261.8 1390.7 1268.6 1393.9C1275.4 1396.9 1283 1398.4 1291.4 1398.4C1299.8 1398.4 1306.3 1397 1310.9 1394.2C1315.5 1391.2 1317.8 1387.1 1317.8 1381.9C1317.8 1376.7 1315.9 1372.7 1312.1 1369.9C1308.5 1366.9 1303.8 1364.5 1298 1362.7C1292.2 1360.7 1286 1358.8 1279.4 1357C1273 1355 1266.9 1352.5 1261.1 1349.5C1255.3 1346.5 1250.5 1342.4 1246.7 1337.2C1243.1 1332 1241.3 1325.1 1241.3 1316.5C1241.3 1307.9 1243.4 1300.5 1247.6 1294.3C1251.8 1287.9 1257.6 1283 1265 1279.6C1272.6 1276.2 1281.7 1274.5 1292.3 1274.5C1303.5 1274.5 1313.4 1276.5 1322 1280.5C1330.8 1284.3 1338 1290.1 1343.6 1297.9L1326.2 1315.3C1322.2 1310.1 1317.2 1306.1 1311.2 1303.3C1305.4 1300.5 1298.8 1299.1 1291.4 1299.1C1283.6 1299.1 1277.6 1300.5 1273.4 1303.3C1269.4 1305.9 1267.4 1309.6 1267.4 1314.4C1267.4 1319.2 1269.2 1322.9 1272.8 1325.5C1276.4 1328.1 1281.1 1330.3 1286.9 1332.1C1292.9 1333.9 1299.1 1335.8 1305.5 1337.8C1311.9 1339.6 1318 1342.1 1323.8 1345.3C1329.6 1348.5 1334.3 1352.8 1337.9 1358.2C1341.7 1363.6 1343.6 1370.7 1343.6 1379.5C1343.6 1392.9 1338.8 1403.5 1329.2 1411.3C1319.8 1419.1 1307.1 1423 1291.1 1423ZM1374.13 1420V1277.5H1401.13V1420H1374.13ZM1387.63 1249C1382.63 1249 1378.53 1247.4 1375.33 1244.2C1372.13 1240.8 1370.53 1236.6 1370.53 1231.6C1370.53 1226.8 1372.13 1222.8 1375.33 1219.6C1378.53 1216.2 1382.63 1214.5 1387.63 1214.5C1392.63 1214.5 1396.73 1216.2 1399.93 1219.6C1403.13 1222.8 1404.73 1226.8 1404.73 1231.6C1404.73 1236.6 1403.13 1240.8 1399.93 1244.2C1396.73 1247.4 1392.63 1249 1387.63 1249ZM1440.92 1420V1277.5H1467.92V1420H1440.92ZM1537.22 1420V1333.9C1537.22 1323.3 1533.92 1315 1527.32 1309C1520.92 1302.8 1512.82 1299.7 1503.02 1299.7C1496.42 1299.7 1490.52 1301.1 1485.32 1303.9C1480.12 1306.7 1475.92 1310.6 1472.72 1315.6C1469.52 1320.6 1467.92 1326.6 1467.92 1333.6L1456.82 1328.2C1456.82 1317.4 1459.12 1308 1463.72 1300C1468.52 1292 1475.02 1285.8 1483.22 1281.4C1491.42 1276.8 1500.62 1274.5 1510.82 1274.5C1520.82 1274.5 1529.82 1276.7 1537.82 1281.1C1546.02 1285.5 1552.42 1291.7 1557.02 1299.7C1561.82 1307.7 1564.22 1317.2 1564.22 1328.2V1420H1537.22ZM1633.52 1420V1333.9C1633.52 1323.3 1630.22 1315 1623.62 1309C1617.22 1302.8 1609.22 1299.7 1599.62 1299.7C1593.02 1299.7 1587.02 1301.1 1581.62 1303.9C1576.42 1306.7 1572.22 1310.6 1569.02 1315.6C1565.82 1320.6 1564.22 1326.6 1564.22 1333.6L1548.92 1328.2C1549.52 1317.2 1552.42 1307.8 1557.62 1300C1563.02 1292 1569.92 1285.8 1578.32 1281.4C1586.72 1276.8 1595.92 1274.5 1605.92 1274.5C1616.32 1274.5 1625.62 1276.7 1633.82 1281.1C1642.02 1285.5 1648.52 1291.7 1653.32 1299.7C1658.32 1307.7 1660.82 1317.3 1660.82 1328.5V1420H1633.52ZM1772.56 1423C1761.76 1423 1751.96 1420.8 1743.16 1416.4C1734.56 1411.8 1727.66 1405.5 1722.46 1397.5C1717.26 1389.5 1714.36 1380.4 1713.76 1370.2V1327.3C1714.36 1316.9 1717.26 1307.8 1722.46 1300C1727.86 1292 1734.86 1285.8 1743.46 1281.4C1752.26 1276.8 1761.96 1274.5 1772.56 1274.5C1785.56 1274.5 1797.26 1277.8 1807.66 1284.4C1818.26 1291 1826.56 1299.9 1832.56 1311.1C1838.56 1322.3 1841.56 1334.9 1841.56 1348.9C1841.56 1362.9 1838.56 1375.5 1832.56 1386.7C1826.56 1397.9 1818.26 1406.8 1807.66 1413.4C1797.26 1419.8 1785.56 1423 1772.56 1423ZM1697.56 1479.7V1277.5H1724.56V1315L1719.46 1349.5L1724.56 1384.3V1479.7H1697.56ZM1768.06 1397.5C1777.06 1397.5 1784.96 1395.4 1791.76 1391.2C1798.56 1387 1803.96 1381.3 1807.96 1374.1C1811.96 1366.7 1813.96 1358.2 1813.96 1348.6C1813.96 1339.2 1811.96 1330.8 1807.96 1323.4C1803.96 1316 1798.56 1310.3 1791.76 1306.3C1784.96 1302.1 1777.16 1300 1768.36 1300C1759.36 1300 1751.46 1302.1 1744.66 1306.3C1737.86 1310.3 1732.56 1316 1728.76 1323.4C1724.96 1330.8 1723.06 1339.3 1723.06 1348.9C1723.06 1358.3 1724.86 1366.7 1728.46 1374.1C1732.26 1381.3 1737.56 1387 1744.36 1391.2C1751.36 1395.4 1759.26 1397.5 1768.06 1397.5ZM1872.17 1420V1205.8H1899.17V1420H1872.17ZM2004.67 1423C1990.47 1423 1977.67 1419.8 1966.27 1413.4C1954.87 1406.8 1945.87 1397.9 1939.27 1386.7C1932.67 1375.5 1929.37 1362.8 1929.37 1348.6C1929.37 1334.6 1932.57 1322 1938.97 1310.8C1945.57 1299.6 1954.37 1290.8 1965.37 1284.4C1976.57 1277.8 1989.07 1274.5 2002.87 1274.5C2016.07 1274.5 2027.67 1277.5 2037.67 1283.5C2047.87 1289.5 2055.77 1297.8 2061.37 1308.4C2067.17 1319 2070.07 1331 2070.07 1344.4C2070.07 1346.4 2069.97 1348.6 2069.77 1351C2069.57 1353.2 2069.17 1355.8 2068.57 1358.8H1948.27V1336.3H2054.17L2044.27 1345C2044.27 1335.4 2042.57 1327.3 2039.17 1320.7C2035.77 1313.9 2030.97 1308.7 2024.77 1305.1C2018.57 1301.3 2011.07 1299.4 2002.27 1299.4C1993.07 1299.4 1984.97 1301.4 1977.97 1305.4C1970.97 1309.4 1965.57 1315 1961.77 1322.2C1957.97 1329.4 1956.07 1337.9 1956.07 1347.7C1956.07 1357.7 1958.07 1366.5 1962.07 1374.1C1966.07 1381.5 1971.77 1387.3 1979.17 1391.5C1986.57 1395.5 1995.07 1397.5 2004.67 1397.5C2012.67 1397.5 2019.97 1396.1 2026.57 1393.3C2033.37 1390.5 2039.17 1386.3 2043.97 1380.7L2061.37 1398.4C2054.57 1406.4 2046.17 1412.5 2036.17 1416.7C2026.37 1420.9 2015.87 1423 2004.67 1423ZM2183.81 1420V1217.8H2210.81V1420H2183.81ZM2148.71 1302.1V1277.5H2245.91V1302.1H2148.71ZM2328.57 1423C2315.57 1423 2303.77 1419.8 2293.17 1413.4C2282.57 1406.8 2274.17 1397.9 2267.97 1386.7C2261.97 1375.5 2258.97 1362.9 2258.97 1348.9C2258.97 1334.9 2261.97 1322.3 2267.97 1311.1C2274.17 1299.9 2282.47 1291 2292.87 1284.4C2303.47 1277.8 2315.37 1274.5 2328.57 1274.5C2339.37 1274.5 2348.97 1276.8 2357.37 1281.4C2365.97 1285.8 2372.87 1292 2378.07 1300C2383.27 1307.8 2386.17 1316.9 2386.77 1327.3V1370.2C2386.17 1380.4 2383.27 1389.5 2378.07 1397.5C2373.07 1405.5 2366.27 1411.8 2357.67 1416.4C2349.27 1420.8 2339.57 1423 2328.57 1423ZM2333.07 1397.5C2346.47 1397.5 2357.27 1393 2365.47 1384C2373.67 1374.8 2377.77 1363.1 2377.77 1348.9C2377.77 1339.1 2375.87 1330.6 2372.07 1323.4C2368.47 1316 2363.27 1310.3 2356.47 1306.3C2349.67 1302.1 2341.77 1300 2332.77 1300C2323.77 1300 2315.77 1302.1 2308.77 1306.3C2301.97 1310.5 2296.57 1316.3 2292.57 1323.7C2288.77 1330.9 2286.87 1339.2 2286.87 1348.6C2286.87 1358.2 2288.77 1366.7 2292.57 1374.1C2296.57 1381.3 2302.07 1387 2309.07 1391.2C2316.07 1395.4 2324.07 1397.5 2333.07 1397.5ZM2375.97 1420V1381.6L2381.07 1346.8L2375.97 1312.3V1277.5H2403.27V1420H2375.97ZM2487.88 1423C2479.88 1423 2472.28 1422 2465.08 1420C2458.08 1417.8 2451.58 1414.8 2445.58 1411C2439.58 1407 2434.38 1402.3 2429.98 1396.9L2447.38 1379.5C2452.58 1385.9 2458.58 1390.7 2465.38 1393.9C2472.18 1396.9 2479.78 1398.4 2488.18 1398.4C2496.58 1398.4 2503.08 1397 2507.68 1394.2C2512.28 1391.2 2514.58 1387.1 2514.58 1381.9C2514.58 1376.7 2512.68 1372.7 2508.88 1369.9C2505.28 1366.9 2500.58 1364.5 2494.78 1362.7C2488.98 1360.7 2482.78 1358.8 2476.18 1357C2469.78 1355 2463.68 1352.5 2457.88 1349.5C2452.08 1346.5 2447.28 1342.4 2443.48 1337.2C2439.88 1332 2438.08 1325.1 2438.08 1316.5C2438.08 1307.9 2440.18 1300.5 2444.38 1294.3C2448.58 1287.9 2454.38 1283 2461.78 1279.6C2469.38 1276.2 2478.48 1274.5 2489.08 1274.5C2500.28 1274.5 2510.18 1276.5 2518.78 1280.5C2527.58 1284.3 2534.78 1290.1 2540.38 1297.9L2522.98 1315.3C2518.98 1310.1 2513.98 1306.1 2507.98 1303.3C2502.18 1300.5 2495.58 1299.1 2488.18 1299.1C2480.38 1299.1 2474.38 1300.5 2470.18 1303.3C2466.18 1305.9 2464.18 1309.6 2464.18 1314.4C2464.18 1319.2 2465.98 1322.9 2469.58 1325.5C2473.18 1328.1 2477.88 1330.3 2483.68 1332.1C2489.68 1333.9 2495.88 1335.8 2502.28 1337.8C2508.68 1339.6 2514.78 1342.1 2520.58 1345.3C2526.38 1348.5 2531.08 1352.8 2534.68 1358.2C2538.48 1363.6 2540.38 1370.7 2540.38 1379.5C2540.38 1392.9 2535.58 1403.5 2525.98 1411.3C2516.58 1419.1 2503.88 1423 2487.88 1423ZM2661.8 1420L2595.2 1347.1L2661.2 1277.5H2693.9L2620.4 1354.3L2621.6 1338.7L2696.6 1420H2661.8ZM2570.6 1420V1205.8H2597.6V1420H2570.6ZM2756.82 1423C2748.82 1423 2741.22 1422 2734.02 1420C2727.02 1417.8 2720.52 1414.8 2714.52 1411C2708.52 1407 2703.32 1402.3 2698.92 1396.9L2716.32 1379.5C2721.52 1385.9 2727.52 1390.7 2734.32 1393.9C2741.12 1396.9 2748.72 1398.4 2757.12 1398.4C2765.52 1398.4 2772.02 1397 2776.62 1394.2C2781.22 1391.2 2783.52 1387.1 2783.52 1381.9C2783.52 1376.7 2781.62 1372.7 2777.82 1369.9C2774.22 1366.9 2769.52 1364.5 2763.72 1362.7C2757.92 1360.7 2751.72 1358.8 2745.12 1357C2738.72 1355 2732.62 1352.5 2726.82 1349.5C2721.02 1346.5 2716.22 1342.4 2712.42 1337.2C2708.82 1332 2707.02 1325.1 2707.02 1316.5C2707.02 1307.9 2709.12 1300.5 2713.32 1294.3C2717.52 1287.9 2723.32 1283 2730.72 1279.6C2738.32 1276.2 2747.42 1274.5 2758.02 1274.5C2769.22 1274.5 2779.12 1276.5 2787.72 1280.5C2796.52 1284.3 2803.72 1290.1 2809.32 1297.9L2791.92 1315.3C2787.92 1310.1 2782.92 1306.1 2776.92 1303.3C2771.12 1300.5 2764.52 1299.1 2757.12 1299.1C2749.32 1299.1 2743.32 1300.5 2739.12 1303.3C2735.12 1305.9 2733.12 1309.6 2733.12 1314.4C2733.12 1319.2 2734.92 1322.9 2738.52 1325.5C2742.12 1328.1 2746.82 1330.3 2752.62 1332.1C2758.62 1333.9 2764.82 1335.8 2771.22 1337.8C2777.62 1339.6 2783.72 1342.1 2789.52 1345.3C2795.32 1348.5 2800.02 1352.8 2803.62 1358.2C2807.42 1363.6 2809.32 1370.7 2809.32 1379.5C2809.32 1392.9 2804.52 1403.5 2794.92 1411.3C2785.52 1419.1 2772.82 1423 2756.82 1423ZM2841.05 1453L2859.65 1417.3L2869.25 1414.9C2868.25 1417.1 2866.95 1418.9 2865.35 1420.3C2863.95 1421.7 2862.15 1422.4 2859.95 1422.4C2855.75 1422.4 2851.85 1420.7 2848.25 1417.3C2844.85 1413.7 2843.15 1409.3 2843.15 1404.1C2843.15 1398.3 2845.05 1393.5 2848.85 1389.7C2852.65 1385.7 2857.45 1383.7 2863.25 1383.7C2868.45 1383.7 2873.05 1385.7 2877.05 1389.7C2881.05 1393.5 2883.05 1398.3 2883.05 1404.1C2883.05 1406.3 2882.55 1409 2881.55 1412.2C2880.75 1415.2 2879.05 1419.1 2876.45 1423.9L2856.65 1461.4L2841.05 1453ZM3059.57 1423C3048.77 1423 3038.97 1420.8 3030.17 1416.4C3021.57 1411.8 3014.67 1405.5 3009.47 1397.5C3004.27 1389.5 3001.37 1380.4 3000.77 1370.2V1327.3C3001.37 1316.9 3004.27 1307.8 3009.47 1300C3014.87 1292 3021.87 1285.8 3030.47 1281.4C3039.27 1276.8 3048.97 1274.5 3059.57 1274.5C3072.57 1274.5 3084.27 1277.8 3094.67 1284.4C3105.27 1291 3113.57 1299.9 3119.57 1311.1C3125.57 1322.3 3128.57 1334.9 3128.57 1348.9C3128.57 1362.9 3125.57 1375.5 3119.57 1386.7C3113.57 1397.9 3105.27 1406.8 3094.67 1413.4C3084.27 1419.8 3072.57 1423 3059.57 1423ZM2984.57 1420V1205.8H3011.57V1312.3L3006.47 1346.8L3011.57 1381.6V1420H2984.57ZM3055.07 1397.5C3064.07 1397.5 3071.97 1395.4 3078.77 1391.2C3085.57 1387 3090.97 1381.3 3094.97 1374.1C3098.97 1366.7 3100.97 1358.2 3100.97 1348.6C3100.97 1339.2 3098.97 1330.8 3094.97 1323.4C3090.97 1316 3085.57 1310.3 3078.77 1306.3C3071.97 1302.1 3064.17 1300 3055.37 1300C3046.37 1300 3038.47 1302.1 3031.67 1306.3C3024.87 1310.3 3019.57 1316 3015.77 1323.4C3011.97 1330.8 3010.07 1339.3 3010.07 1348.9C3010.07 1358.3 3011.87 1366.7 3015.47 1374.1C3019.27 1381.3 3024.57 1387 3031.37 1391.2C3038.37 1395.4 3046.27 1397.5 3055.07 1397.5ZM3159.48 1420V1277.5H3186.48V1420H3159.48ZM3172.98 1249C3167.98 1249 3163.88 1247.4 3160.68 1244.2C3157.48 1240.8 3155.88 1236.6 3155.88 1231.6C3155.88 1226.8 3157.48 1222.8 3160.68 1219.6C3163.88 1216.2 3167.98 1214.5 3172.98 1214.5C3177.98 1214.5 3182.08 1216.2 3185.28 1219.6C3188.48 1222.8 3190.08 1226.8 3190.08 1231.6C3190.08 1236.6 3188.48 1240.8 3185.28 1244.2C3182.08 1247.4 3177.98 1249 3172.98 1249ZM3285.37 1482.7C3270.77 1482.7 3257.77 1480 3246.37 1474.6C3235.17 1469.2 3226.17 1461.6 3219.37 1451.8L3236.77 1434.1C3242.57 1441.5 3249.47 1447.1 3257.47 1450.9C3265.47 1454.9 3274.97 1456.9 3285.97 1456.9C3300.57 1456.9 3312.07 1453 3320.47 1445.2C3329.07 1437.6 3333.37 1427.3 3333.37 1414.3V1378.9L3338.17 1346.8L3333.37 1315V1277.5H3360.37V1414.3C3360.37 1427.9 3357.17 1439.8 3350.77 1450C3344.57 1460.2 3335.77 1468.2 3324.37 1474C3313.17 1479.8 3300.17 1482.7 3285.37 1482.7ZM3285.37 1417.6C3272.37 1417.6 3260.67 1414.5 3250.27 1408.3C3240.07 1402.1 3231.97 1393.6 3225.97 1382.8C3219.97 1371.8 3216.97 1359.5 3216.97 1345.9C3216.97 1332.3 3219.97 1320.2 3225.97 1309.6C3231.97 1298.8 3240.07 1290.3 3250.27 1284.1C3260.67 1277.7 3272.37 1274.5 3285.37 1274.5C3296.57 1274.5 3306.47 1276.7 3315.07 1281.1C3323.67 1285.5 3330.47 1291.7 3335.47 1299.7C3340.67 1307.5 3343.47 1316.7 3343.87 1327.3V1365.1C3343.27 1375.5 3340.37 1384.7 3335.17 1392.7C3330.17 1400.5 3323.37 1406.6 3314.77 1411C3306.17 1415.4 3296.37 1417.6 3285.37 1417.6ZM3290.77 1392.1C3299.57 1392.1 3307.27 1390.2 3313.87 1386.4C3320.67 1382.6 3325.87 1377.3 3329.47 1370.5C3333.07 1363.5 3334.87 1355.4 3334.87 1346.2C3334.87 1337 3332.97 1329 3329.17 1322.2C3325.57 1315.2 3320.47 1309.8 3313.87 1306C3307.27 1302 3299.47 1300 3290.47 1300C3281.47 1300 3273.57 1302 3266.77 1306C3259.97 1309.8 3254.57 1315.2 3250.57 1322.2C3246.77 1329 3244.87 1336.9 3244.87 1345.9C3244.87 1354.9 3246.77 1362.9 3250.57 1369.9C3254.57 1376.9 3259.97 1382.4 3266.77 1386.4C3273.77 1390.2 3281.77 1392.1 3290.77 1392.1ZM3462.4 1420V1277.5H3489.4V1420H3462.4ZM3558.7 1420V1333.9C3558.7 1323.3 3555.4 1315 3548.8 1309C3542.4 1302.8 3534.3 1299.7 3524.5 1299.7C3517.9 1299.7 3512 1301.1 3506.8 1303.9C3501.6 1306.7 3497.4 1310.6 3494.2 1315.6C3491 1320.6 3489.4 1326.6 3489.4 1333.6L3478.3 1328.2C3478.3 1317.4 3480.6 1308 3485.2 1300C3490 1292 3496.5 1285.8 3504.7 1281.4C3512.9 1276.8 3522.1 1274.5 3532.3 1274.5C3542.3 1274.5 3551.3 1276.7 3559.3 1281.1C3567.5 1285.5 3573.9 1291.7 3578.5 1299.7C3583.3 1307.7 3585.7 1317.2 3585.7 1328.2V1420H3558.7ZM3655 1420V1333.9C3655 1323.3 3651.7 1315 3645.1 1309C3638.7 1302.8 3630.7 1299.7 3621.1 1299.7C3614.5 1299.7 3608.5 1301.1 3603.1 1303.9C3597.9 1306.7 3593.7 1310.6 3590.5 1315.6C3587.3 1320.6 3585.7 1326.6 3585.7 1333.6L3570.4 1328.2C3571 1317.2 3573.9 1307.8 3579.1 1300C3584.5 1292 3591.4 1285.8 3599.8 1281.4C3608.2 1276.8 3617.4 1274.5 3627.4 1274.5C3637.8 1274.5 3647.1 1276.7 3655.3 1281.1C3663.5 1285.5 3670 1291.7 3674.8 1299.7C3679.8 1307.7 3682.3 1317.3 3682.3 1328.5V1420H3655ZM3719.34 1420V1277.5H3746.34V1420H3719.34ZM3732.84 1249C3727.84 1249 3723.74 1247.4 3720.54 1244.2C3717.34 1240.8 3715.74 1236.6 3715.74 1231.6C3715.74 1226.8 3717.34 1222.8 3720.54 1219.6C3723.74 1216.2 3727.84 1214.5 3732.84 1214.5C3737.84 1214.5 3741.94 1216.2 3745.14 1219.6C3748.34 1222.8 3749.94 1226.8 3749.94 1231.6C3749.94 1236.6 3748.34 1240.8 3745.14 1244.2C3741.94 1247.4 3737.84 1249 3732.84 1249ZM3786.13 1420V1205.8H3813.13V1420H3786.13ZM3918.64 1423C3904.44 1423 3891.64 1419.8 3880.24 1413.4C3868.84 1406.8 3859.84 1397.9 3853.24 1386.7C3846.64 1375.5 3843.34 1362.8 3843.34 1348.6C3843.34 1334.6 3846.54 1322 3852.94 1310.8C3859.54 1299.6 3868.34 1290.8 3879.34 1284.4C3890.54 1277.8 3903.04 1274.5 3916.84 1274.5C3930.04 1274.5 3941.64 1277.5 3951.64 1283.5C3961.84 1289.5 3969.74 1297.8 3975.34 1308.4C3981.14 1319 3984.04 1331 3984.04 1344.4C3984.04 1346.4 3983.94 1348.6 3983.74 1351C3983.54 1353.2 3983.14 1355.8 3982.54 1358.8H3862.24V1336.3H3968.14L3958.24 1345C3958.24 1335.4 3956.54 1327.3 3953.14 1320.7C3949.74 1313.9 3944.94 1308.7 3938.74 1305.1C3932.54 1301.3 3925.04 1299.4 3916.24 1299.4C3907.04 1299.4 3898.94 1301.4 3891.94 1305.4C3884.94 1309.4 3879.54 1315 3875.74 1322.2C3871.94 1329.4 3870.04 1337.9 3870.04 1347.7C3870.04 1357.7 3872.04 1366.5 3876.04 1374.1C3880.04 1381.5 3885.74 1387.3 3893.14 1391.5C3900.54 1395.5 3909.04 1397.5 3918.64 1397.5C3926.64 1397.5 3933.94 1396.1 3940.54 1393.3C3947.34 1390.5 3953.14 1386.3 3957.94 1380.7L3975.34 1398.4C3968.54 1406.4 3960.14 1412.5 3950.14 1416.7C3940.34 1420.9 3929.84 1423 3918.64 1423ZM4058.78 1423C4050.78 1423 4043.18 1422 4035.98 1420C4028.98 1417.8 4022.48 1414.8 4016.48 1411C4010.48 1407 4005.28 1402.3 4000.88 1396.9L4018.28 1379.5C4023.48 1385.9 4029.48 1390.7 4036.28 1393.9C4043.08 1396.9 4050.68 1398.4 4059.08 1398.4C4067.48 1398.4 4073.98 1397 4078.58 1394.2C4083.18 1391.2 4085.48 1387.1 4085.48 1381.9C4085.48 1376.7 4083.58 1372.7 4079.78 1369.9C4076.18 1366.9 4071.48 1364.5 4065.68 1362.7C4059.88 1360.7 4053.68 1358.8 4047.08 1357C4040.68 1355 4034.58 1352.5 4028.78 1349.5C4022.98 1346.5 4018.18 1342.4 4014.38 1337.2C4010.78 1332 4008.98 1325.1 4008.98 1316.5C4008.98 1307.9 4011.08 1300.5 4015.28 1294.3C4019.48 1287.9 4025.28 1283 4032.68 1279.6C4040.28 1276.2 4049.38 1274.5 4059.98 1274.5C4071.18 1274.5 4081.08 1276.5 4089.68 1280.5C4098.48 1284.3 4105.68 1290.1 4111.28 1297.9L4093.88 1315.3C4089.88 1310.1 4084.88 1306.1 4078.88 1303.3C4073.08 1300.5 4066.48 1299.1 4059.08 1299.1C4051.28 1299.1 4045.28 1300.5 4041.08 1303.3C4037.08 1305.9 4035.08 1309.6 4035.08 1314.4C4035.08 1319.2 4036.88 1322.9 4040.48 1325.5C4044.08 1328.1 4048.78 1330.3 4054.58 1332.1C4060.58 1333.9 4066.78 1335.8 4073.18 1337.8C4079.58 1339.6 4085.68 1342.1 4091.48 1345.3C4097.28 1348.5 4101.98 1352.8 4105.58 1358.2C4109.38 1363.6 4111.28 1370.7 4111.28 1379.5C4111.28 1392.9 4106.48 1403.5 4096.88 1411.3C4087.48 1419.1 4074.78 1423 4058.78 1423ZM4163.4 1420V1217.8H4190.4V1420H4163.4ZM4128.3 1302.1V1277.5H4225.5V1302.1H4128.3ZM4312.66 1423C4298.66 1423 4286.06 1419.7 4274.86 1413.1C4263.66 1406.5 4254.76 1397.6 4248.16 1386.4C4241.56 1375 4238.26 1362.3 4238.26 1348.3C4238.26 1334.5 4241.56 1322.1 4248.16 1311.1C4254.76 1299.9 4263.66 1291 4274.86 1284.4C4286.06 1277.8 4298.66 1274.5 4312.66 1274.5C4326.46 1274.5 4338.96 1277.8 4350.16 1284.4C4361.56 1290.8 4370.56 1299.6 4377.16 1310.8C4383.76 1322 4387.06 1334.5 4387.06 1348.3C4387.06 1362.3 4383.76 1375 4377.16 1386.4C4370.56 1397.6 4361.56 1406.5 4350.16 1413.1C4338.96 1419.7 4326.46 1423 4312.66 1423ZM4312.66 1396.9C4321.66 1396.9 4329.66 1394.8 4336.66 1390.6C4343.66 1386.4 4349.16 1380.7 4353.16 1373.5C4357.16 1366.1 4359.16 1357.7 4359.16 1348.3C4359.16 1339.1 4357.06 1330.9 4352.86 1323.7C4348.86 1316.5 4343.36 1310.9 4336.36 1306.9C4329.56 1302.7 4321.66 1300.6 4312.66 1300.6C4303.66 1300.6 4295.66 1302.7 4288.66 1306.9C4281.66 1310.9 4276.16 1316.5 4272.16 1323.7C4268.16 1330.9 4266.16 1339.1 4266.16 1348.3C4266.16 1357.7 4268.16 1366.1 4272.16 1373.5C4276.16 1380.7 4281.66 1386.4 4288.66 1390.6C4295.66 1394.8 4303.66 1396.9 4312.66 1396.9ZM4518.28 1420V1336.9C4518.28 1326.1 4514.88 1317.2 4508.08 1310.2C4501.28 1303.2 4492.48 1299.7 4481.68 1299.7C4474.48 1299.7 4468.08 1301.3 4462.48 1304.5C4456.88 1307.7 4452.48 1312.1 4449.28 1317.7C4446.08 1323.3 4444.48 1329.7 4444.48 1336.9L4433.38 1330.6C4433.38 1319.8 4435.78 1310.2 4440.58 1301.8C4445.38 1293.4 4452.08 1286.8 4460.68 1282C4469.28 1277 4478.98 1274.5 4489.78 1274.5C4500.58 1274.5 4510.08 1277.2 4518.28 1282.6C4526.68 1288 4533.28 1295.1 4538.08 1303.9C4542.88 1312.5 4545.28 1321.7 4545.28 1331.5V1420H4518.28ZM4417.48 1420V1277.5H4444.48V1420H4417.48ZM4647.84 1423C4633.64 1423 4620.84 1419.8 4609.44 1413.4C4598.04 1406.8 4589.04 1397.9 4582.44 1386.7C4575.84 1375.5 4572.54 1362.8 4572.54 1348.6C4572.54 1334.6 4575.74 1322 4582.14 1310.8C4588.74 1299.6 4597.54 1290.8 4608.54 1284.4C4619.74 1277.8 4632.24 1274.5 4646.04 1274.5C4659.24 1274.5 4670.84 1277.5 4680.84 1283.5C4691.04 1289.5 4698.94 1297.8 4704.54 1308.4C4710.34 1319 4713.24 1331 4713.24 1344.4C4713.24 1346.4 4713.14 1348.6 4712.94 1351C4712.74 1353.2 4712.34 1355.8 4711.74 1358.8H4591.44V1336.3H4697.34L4687.44 1345C4687.44 1335.4 4685.74 1327.3 4682.34 1320.7C4678.94 1313.9 4674.14 1308.7 4667.94 1305.1C4661.74 1301.3 4654.24 1299.4 4645.44 1299.4C4636.24 1299.4 4628.14 1301.4 4621.14 1305.4C4614.14 1309.4 4608.74 1315 4604.94 1322.2C4601.14 1329.4 4599.24 1337.9 4599.24 1347.7C4599.24 1357.7 4601.24 1366.5 4605.24 1374.1C4609.24 1381.5 4614.94 1387.3 4622.34 1391.5C4629.74 1395.5 4638.24 1397.5 4647.84 1397.5C4655.84 1397.5 4663.14 1396.1 4669.74 1393.3C4676.54 1390.5 4682.34 1386.3 4687.14 1380.7L4704.54 1398.4C4697.74 1406.4 4689.34 1412.5 4679.34 1416.7C4669.54 1420.9 4659.04 1423 4647.84 1423ZM4787.98 1423C4779.98 1423 4772.38 1422 4765.18 1420C4758.18 1417.8 4751.68 1414.8 4745.68 1411C4739.68 1407 4734.48 1402.3 4730.08 1396.9L4747.48 1379.5C4752.68 1385.9 4758.68 1390.7 4765.48 1393.9C4772.28 1396.9 4779.88 1398.4 4788.28 1398.4C4796.68 1398.4 4803.18 1397 4807.78 1394.2C4812.38 1391.2 4814.68 1387.1 4814.68 1381.9C4814.68 1376.7 4812.78 1372.7 4808.98 1369.9C4805.38 1366.9 4800.68 1364.5 4794.88 1362.7C4789.08 1360.7 4782.88 1358.8 4776.28 1357C4769.88 1355 4763.78 1352.5 4757.98 1349.5C4752.18 1346.5 4747.38 1342.4 4743.58 1337.2C4739.98 1332 4738.18 1325.1 4738.18 1316.5C4738.18 1307.9 4740.28 1300.5 4744.48 1294.3C4748.68 1287.9 4754.48 1283 4761.88 1279.6C4769.48 1276.2 4778.58 1274.5 4789.18 1274.5C4800.38 1274.5 4810.28 1276.5 4818.88 1280.5C4827.68 1284.3 4834.88 1290.1 4840.48 1297.9L4823.08 1315.3C4819.08 1310.1 4814.08 1306.1 4808.08 1303.3C4802.28 1300.5 4795.68 1299.1 4788.28 1299.1C4780.48 1299.1 4774.48 1300.5 4770.28 1303.3C4766.28 1305.9 4764.28 1309.6 4764.28 1314.4C4764.28 1319.2 4766.08 1322.9 4769.68 1325.5C4773.28 1328.1 4777.98 1330.3 4783.78 1332.1C4789.78 1333.9 4795.98 1335.8 4802.38 1337.8C4808.78 1339.6 4814.88 1342.1 4820.68 1345.3C4826.48 1348.5 4831.18 1352.8 4834.78 1358.2C4838.58 1363.6 4840.48 1370.7 4840.48 1379.5C4840.48 1392.9 4835.68 1403.5 4826.08 1411.3C4816.68 1419.1 4803.98 1423 4787.98 1423Z" fill="#867974"/>
<defs>
<linearGradient id="paint0_linear_172_28" x1="899.663" y1="271" x2="732.289" y2="502.631" gradientUnits="userSpaceOnUse">
<stop stop-color="#D9661A"/>
<stop offset="1" stop-color="#B02B11"/>
</linearGradient>
<linearGradient id="paint1_linear_172_28" x1="397.837" y1="310.885" x2="402.423" y2="1446" gradientUnits="userSpaceOnUse">
<stop stop-color="#302F39"/>
<stop offset="1" stop-color="#484356"/>
</linearGradient>
<linearGradient id="paint2_linear_172_28" x1="1182" y1="630" x2="5329" y2="630" gradientUnits="userSpaceOnUse">
<stop stop-color="#BE4A2D"/>
<stop offset="1" stop-color="#85260E"/>
</linearGradient>
</defs>
</svg>
