<svg width="1938" height="2446" viewBox="0 0 1938 2446" fill="none" xmlns="http://www.w3.org/2000/svg">
<path d="M1938 239.326C1938 371.502 1840.45 504.973 1698.71 478.652C1556.96 452.331 1475.41 385.157 1459.41 239.326C1443.41 93.4947 1566.55 0 1698.71 0C1873.48 10.1625 1938 107.15 1938 239.326Z" fill="#EDE1DD"/>
<path d="M1277.21 1693.59C1441.21 1521.59 1628 1456.09 1659.71 1652.59C1677.28 1761.45 1649.29 1891.92 1628 1950.59C1606.71 2009.26 1565.22 2075.26 1483.72 2165.26C1402.22 2255.26 1181.47 2402.58 1078.71 2424.26C975.955 2445.94 819.114 2465.86 660.291 2400.67C477.056 2325.47 451.215 2119.28 660.291 2051.51C733.715 2027.72 901.292 1955.05 970.503 1917.01C1039.71 1878.98 1213.21 1760.71 1277.21 1693.59ZM803.503 83C978.896 83 1076.84 120.488 1287.84 283C1485.84 435.5 1637.34 603.625 1649.5 829.5C1661.66 1055.38 1585.73 1153.65 1432.34 1384.5C1278.95 1615.35 1146.11 1735.31 929.003 1725.5C711.895 1715.69 370.361 1601 279.231 1489.65C106.839 1279 50.8398 1191 3.23077 925.147C-14.0092 734.642 37.2857 571.082 168.231 404.647C328.339 227 628.111 83.0002 803.503 83ZM816.504 576.5C742.834 576.5 618.913 631.211 551.662 707.422C496.662 778.822 475.116 848.989 482.358 930.716C502.355 1044.77 525.877 1082.52 598.286 1172.89C654.625 1227.22 779.312 1260.29 870.504 1264.5C961.696 1268.71 1018.2 1226.81 1082.63 1127.78C1147.06 1028.74 1167.61 987.4 1162.5 890.5C1157.4 793.6 1105.1 720.657 1021.93 655.234C933.307 585.517 890.174 576.5 816.504 576.5Z" fill="#EDE1DD"/>
</svg>
