<svg width="7110" height="1764" viewBox="0 0 7110 1764" fill="none" xmlns="http://www.w3.org/2000/svg">
<path d="M931.311 440.011C931.311 503.53 884.432 567.671 816.313 555.022C748.195 542.373 709.004 510.092 701.316 440.011C693.628 369.93 752.802 325 816.313 325C900.303 329.884 931.311 376.492 931.311 440.011Z" fill="url(#paint0_linear_173_2)"/>
<path d="M613.783 1138.88C692.597 1056.22 782.36 1024.74 797.6 1119.17C806.042 1171.49 792.592 1234.19 782.361 1262.38C772.131 1290.57 752.187 1322.29 713.021 1365.54C673.855 1408.79 567.775 1479.59 518.393 1490.01C469.01 1500.43 393.639 1510 317.314 1478.67C229.259 1442.53 216.84 1343.44 317.314 1310.88C352.599 1299.44 433.13 1264.52 466.391 1246.24C499.651 1227.97 583.029 1171.13 613.783 1138.88ZM386.134 364.885C470.421 364.885 517.489 382.9 618.888 460.997C714.039 534.283 786.847 615.078 792.69 723.625C798.534 832.172 762.043 879.398 688.329 990.337C614.615 1101.28 550.779 1158.92 446.445 1154.21C342.111 1149.5 177.983 1094.38 134.188 1040.87C51.3436 939.638 24.4319 897.348 1.55273 769.589C-6.73197 678.04 17.9186 599.439 80.8457 519.457C157.788 434.087 301.847 364.885 386.134 364.885ZM392.381 602.043C356.978 602.043 297.426 628.335 265.107 664.959C238.676 699.271 228.322 732.991 231.802 772.266C241.412 827.074 252.715 845.217 287.513 888.644C314.587 914.755 374.507 930.648 418.331 932.67C462.155 934.691 489.307 914.559 520.27 866.966C551.232 819.373 561.11 799.506 558.655 752.939C556.201 706.373 531.068 671.319 491.102 639.88C448.511 606.376 427.784 602.043 392.381 602.043Z" fill="url(#paint1_linear_173_2)"/>
<path d="M1860.4 1414C1792.27 1414 1728.33 1401.4 1668.6 1376.2C1609.8 1350.07 1558 1314.13 1513.2 1268.4C1469.33 1222.67 1434.8 1169.47 1409.6 1108.8C1384.4 1048.13 1371.8 982.8 1371.8 912.8C1371.8 842.8 1384.4 777.933 1409.6 718.2C1434.8 657.533 1469.8 604.333 1514.6 558.6C1559.4 512.867 1611.67 477.4 1671.4 452.2C1732.07 427 1797.87 414.4 1868.8 414.4C1946.27 414.4 2017.67 429.333 2083 459.2C2148.33 489.067 2202.93 532 2246.8 588L2155.8 679C2125 634.2 2084.4 600.133 2034 576.8C1983.6 552.533 1928.53 540.4 1868.8 540.4C1797.87 540.4 1734.87 556.267 1679.8 588C1625.67 619.733 1583.2 663.6 1552.4 719.6C1522.53 775.6 1507.6 840 1507.6 912.8C1507.6 986.533 1523 1051.4 1553.8 1107.4C1584.6 1163.4 1626.13 1207.27 1678.4 1239C1730.67 1270.73 1790.4 1286.6 1857.6 1286.6C1925.73 1286.6 1984.53 1273.53 2034 1247.4C2084.4 1221.27 2123.13 1183 2150.2 1132.6C2177.27 1081.27 2190.8 1018.73 2190.8 945L2270.6 1002.4H1850.6V882H2326.6V901.6C2326.6 1014.53 2306.53 1109.27 2266.4 1185.8C2227.2 1261.4 2172.13 1318.33 2101.2 1356.6C2031.2 1394.87 1950.93 1414 1860.4 1414ZM2785.01 1414C2719.68 1414 2660.88 1398.6 2608.61 1367.8C2556.35 1337 2514.81 1295.47 2484.01 1243.2C2453.21 1190 2437.81 1130.73 2437.81 1065.4C2437.81 1001 2453.21 943.133 2484.01 891.8C2514.81 839.533 2556.35 798 2608.61 767.2C2660.88 736.4 2719.68 721 2785.01 721C2849.41 721 2907.75 736.4 2960.01 767.2C3013.21 797.067 3055.21 838.133 3086.01 890.4C3116.81 942.667 3132.21 1001 3132.21 1065.4C3132.21 1130.73 3116.81 1190 3086.01 1243.2C3055.21 1295.47 3013.21 1337 2960.01 1367.8C2907.75 1398.6 2849.41 1414 2785.01 1414ZM2785.01 1292.2C2827.01 1292.2 2864.35 1282.4 2897.01 1262.8C2929.68 1243.2 2955.35 1216.6 2974.01 1183C2992.68 1148.47 3002.01 1109.27 3002.01 1065.4C3002.01 1022.47 2992.21 984.2 2972.61 950.6C2953.95 917 2928.28 890.867 2895.61 872.2C2863.88 852.6 2827.01 842.8 2785.01 842.8C2743.01 842.8 2705.68 852.6 2673.01 872.2C2640.35 890.867 2614.68 917 2596.01 950.6C2577.35 984.2 2568.01 1022.47 2568.01 1065.4C2568.01 1109.27 2577.35 1148.47 2596.01 1183C2614.68 1216.6 2640.35 1243.2 2673.01 1262.8C2705.68 1282.4 2743.01 1292.2 2785.01 1292.2ZM3624.18 1414C3573.78 1414 3528.05 1403.73 3486.98 1383.2C3446.85 1361.73 3414.65 1332.33 3390.38 1295C3366.11 1257.67 3352.58 1215.2 3349.78 1167.6V967.4C3352.58 918.867 3366.11 876.4 3390.38 840C3415.58 802.667 3448.25 773.733 3488.38 753.2C3529.45 731.733 3574.71 721 3624.18 721C3684.85 721 3739.45 736.4 3787.98 767.2C3837.45 798 3876.18 839.533 3904.18 891.8C3932.18 944.067 3946.18 1002.87 3946.18 1068.2C3946.18 1133.53 3932.18 1192.33 3904.18 1244.6C3876.18 1296.87 3837.45 1338.4 3787.98 1369.2C3739.45 1399.07 3684.85 1414 3624.18 1414ZM3274.18 1400V400.4H3400.18V897.4L3376.38 1058.4L3400.18 1220.8V1400H3274.18ZM3603.18 1295C3645.18 1295 3682.05 1285.2 3713.78 1265.6C3745.51 1246 3770.71 1219.4 3789.38 1185.8C3808.05 1151.27 3817.38 1111.6 3817.38 1066.8C3817.38 1022.93 3808.05 983.733 3789.38 949.2C3770.71 914.667 3745.51 888.067 3713.78 869.4C3682.05 849.8 3645.65 840 3604.58 840C3562.58 840 3525.71 849.8 3493.98 869.4C3462.25 888.067 3437.51 914.667 3419.78 949.2C3402.05 983.733 3393.18 1023.4 3393.18 1068.2C3393.18 1112.07 3401.58 1151.27 3418.38 1185.8C3436.11 1219.4 3460.85 1246 3492.58 1265.6C3525.25 1285.2 3562.11 1295 3603.18 1295ZM4090.43 1400V735H4216.43V1400H4090.43ZM4153.43 602C4130.09 602 4110.96 594.533 4096.03 579.6C4081.09 563.733 4073.63 544.133 4073.63 520.8C4073.63 498.4 4081.09 479.733 4096.03 464.8C4110.96 448.933 4130.09 441 4153.43 441C4176.76 441 4195.89 448.933 4210.83 464.8C4225.76 479.733 4233.23 498.4 4233.23 520.8C4233.23 544.133 4225.76 563.733 4210.83 579.6C4195.89 594.533 4176.76 602 4153.43 602Z" fill="#3F3C4B"/>
<path d="M4682.11 1400V456.4H4813.71V1400H4682.11ZM4351.71 548.8V428.4H5142.71V548.8H4351.71ZM5375.34 1414C5314.67 1414 5259.61 1399.07 5210.14 1369.2C5160.67 1338.4 5121.47 1296.87 5092.54 1244.6C5064.54 1192.33 5050.54 1133.53 5050.54 1068.2C5050.54 1002.87 5064.54 944.067 5092.54 891.8C5121.47 839.533 5160.21 798 5208.74 767.2C5258.21 736.4 5313.74 721 5375.34 721C5425.74 721 5470.54 731.733 5509.74 753.2C5549.87 773.733 5582.07 802.667 5606.34 840C5630.61 876.4 5644.14 918.867 5646.94 967.4V1167.6C5644.14 1215.2 5630.61 1257.67 5606.34 1295C5583.01 1332.33 5551.27 1361.73 5511.14 1383.2C5471.94 1403.73 5426.67 1414 5375.34 1414ZM5396.34 1295C5458.87 1295 5509.27 1274 5547.54 1232C5585.81 1189.07 5604.94 1134.47 5604.94 1068.2C5604.94 1022.47 5596.07 982.8 5578.34 949.2C5561.54 914.667 5537.27 888.067 5505.54 869.4C5473.81 849.8 5436.94 840 5394.94 840C5352.94 840 5315.61 849.8 5282.94 869.4C5251.21 889 5226.01 916.067 5207.34 950.6C5189.61 984.2 5180.74 1022.93 5180.74 1066.8C5180.74 1111.6 5189.61 1151.27 5207.34 1185.8C5226.01 1219.4 5251.67 1246 5284.34 1265.6C5317.01 1285.2 5354.34 1295 5396.34 1295ZM5596.54 1400V1220.8L5620.34 1058.4L5596.54 897.4V735H5723.94V1400H5596.54ZM6118.78 1414C6081.45 1414 6045.98 1409.33 6012.38 1400C5979.72 1389.73 5949.38 1375.73 5921.38 1358C5893.38 1339.33 5869.12 1317.4 5848.58 1292.2L5929.78 1211C5954.05 1240.87 5982.05 1263.27 6013.78 1278.2C6045.52 1292.2 6080.98 1299.2 6120.18 1299.2C6159.38 1299.2 6189.72 1292.67 6211.18 1279.6C6232.65 1265.6 6243.38 1246.47 6243.38 1222.2C6243.38 1197.93 6234.52 1179.27 6216.78 1166.2C6199.98 1152.2 6178.05 1141 6150.98 1132.6C6123.92 1123.27 6094.98 1114.4 6064.18 1106C6034.32 1096.67 6005.85 1085 5978.78 1071C5951.72 1057 5929.32 1037.87 5911.58 1013.6C5894.78 989.333 5886.38 957.133 5886.38 917C5886.38 876.867 5896.18 842.333 5915.78 813.4C5935.38 783.533 5962.45 760.667 5996.98 744.8C6032.45 728.933 6074.92 721 6124.38 721C6176.65 721 6222.85 730.333 6262.98 749C6304.05 766.733 6337.65 793.8 6363.78 830.2L6282.58 911.4C6263.92 887.133 6240.58 868.467 6212.58 855.4C6185.52 842.333 6154.72 835.8 6120.18 835.8C6083.78 835.8 6055.78 842.333 6036.18 855.4C6017.52 867.533 6008.18 884.8 6008.18 907.2C6008.18 929.6 6016.58 946.867 6033.38 959C6050.18 971.133 6072.12 981.4 6099.18 989.8C6127.18 998.2 6156.12 1007.07 6185.98 1016.4C6215.85 1024.8 6244.32 1036.47 6271.38 1051.4C6298.45 1066.33 6320.38 1086.4 6337.18 1111.6C6354.92 1136.8 6363.78 1169.93 6363.78 1211C6363.78 1273.53 6341.38 1323 6296.58 1359.4C6252.72 1395.8 6193.45 1414 6118.78 1414ZM6930.45 1400L6619.65 1059.8L6927.65 735H7080.25L6737.25 1093.4L6742.85 1020.6L7092.85 1400H6930.45ZM6504.85 1400V400.4H6630.85V1400H6504.85Z" fill="url(#paint2_linear_173_2)"/>
<defs>
<linearGradient id="paint0_linear_173_2" x1="899.663" y1="325" x2="732.289" y2="556.631" gradientUnits="userSpaceOnUse">
<stop stop-color="#D9661A"/>
<stop offset="1" stop-color="#B02B11"/>
</linearGradient>
<linearGradient id="paint1_linear_173_2" x1="397.837" y1="364.885" x2="402.423" y2="1500" gradientUnits="userSpaceOnUse">
<stop stop-color="#302F39"/>
<stop offset="1" stop-color="#484356"/>
</linearGradient>
<linearGradient id="paint2_linear_173_2" x1="1306" y1="882" x2="7110" y2="882" gradientUnits="userSpaceOnUse">
<stop stop-color="#BE4A2D"/>
<stop offset="1" stop-color="#85260E"/>
</linearGradient>
</defs>
</svg>
